<svg width="44" height="52" viewBox="0 0 44 52" fill="none" xmlns="http://www.w3.org/2000/svg">
<mask id="path-1-inside-1_4456_3967" fill="white">
<path fill-rule="evenodd" clip-rule="evenodd" d="M27.041 43.4198C36.7618 41.1409 44 32.4157 44 22C44 9.84974 34.1503 0 22 0C9.84974 0 0 9.84974 0 22C0 32.813 7.80098 41.8041 18.082 43.6521L22.5 52L27.041 43.4198Z"/>
</mask>
<path fill-rule="evenodd" clip-rule="evenodd" d="M27.041 43.4198C36.7618 41.1409 44 32.4157 44 22C44 9.84974 34.1503 0 22 0C9.84974 0 0 9.84974 0 22C0 32.813 7.80098 41.8041 18.082 43.6521L22.5 52L27.041 43.4198Z" fill="#3B3E49"/>
<path d="M27.041 43.4198L26.8127 42.4462L26.3699 42.55L26.1571 42.952L27.041 43.4198ZM18.082 43.6521L18.9659 43.1844L18.7381 42.7541L18.2589 42.6679L18.082 43.6521ZM22.5 52L21.6161 52.4678L22.5 54.1378L23.3839 52.4678L22.5 52ZM43 22C43 31.941 36.0916 40.2709 26.8127 42.4462L27.2692 44.3934C37.4319 42.0109 45 32.8905 45 22H43ZM22 1C33.598 1 43 10.402 43 22H45C45 9.29745 34.7025 -1 22 -1V1ZM1 22C1 10.402 10.402 1 22 1V-1C9.29745 -1 -1 9.29745 -1 22H1ZM18.2589 42.6679C8.44587 40.904 1 32.3205 1 22H-1C-1 33.3056 7.15609 42.7042 17.9051 44.6364L18.2589 42.6679ZM17.1982 44.1199L21.6161 52.4678L23.3839 51.5322L18.9659 43.1844L17.1982 44.1199ZM23.3839 52.4678L27.9248 43.8875L26.1571 42.952L21.6161 51.5322L23.3839 52.4678Z" fill="#FFCC00" mask="url(#path-1-inside-1_4456_3967)"/>
<path d="M15.252 28L20.868 15.31H22.326L28.032 28H26.304L24.738 24.4L25.458 24.832H17.736L18.528 24.4L16.962 28H15.252ZM21.57 17.182L18.762 23.842L18.33 23.464H24.864L24.522 23.842L21.642 17.182H21.57Z" fill="#FFCC00"/>
</svg>
