<svg width="44" height="52" viewBox="0 0 44 52" fill="none" xmlns="http://www.w3.org/2000/svg">
<mask id="path-1-inside-1_4456_3975" fill="white">
<path fill-rule="evenodd" clip-rule="evenodd" d="M27.041 43.4198C36.7618 41.1409 44 32.4157 44 22C44 9.84974 34.1503 0 22 0C9.84974 0 0 9.84974 0 22C0 32.813 7.80098 41.8041 18.082 43.6521L22.5 52L27.041 43.4198Z"/>
</mask>
<path fill-rule="evenodd" clip-rule="evenodd" d="M27.041 43.4198C36.7618 41.1409 44 32.4157 44 22C44 9.84974 34.1503 0 22 0C9.84974 0 0 9.84974 0 22C0 32.813 7.80098 41.8041 18.082 43.6521L22.5 52L27.041 43.4198Z" fill="#3B3E49"/>
<path d="M27.041 43.4198L26.8127 42.4462L26.3699 42.55L26.1571 42.952L27.041 43.4198ZM18.082 43.6521L18.9659 43.1844L18.7381 42.7541L18.2589 42.6679L18.082 43.6521ZM22.5 52L21.6161 52.4678L22.5 54.1378L23.3839 52.4678L22.5 52ZM43 22C43 31.941 36.0916 40.2709 26.8127 42.4462L27.2692 44.3934C37.4319 42.0109 45 32.8905 45 22H43ZM22 1C33.598 1 43 10.402 43 22H45C45 9.29745 34.7025 -1 22 -1V1ZM1 22C1 10.402 10.402 1 22 1V-1C9.29745 -1 -1 9.29745 -1 22H1ZM18.2589 42.6679C8.44587 40.904 1 32.3205 1 22H-1C-1 33.3056 7.15609 42.7042 17.9051 44.6364L18.2589 42.6679ZM17.1982 44.1199L21.6161 52.4678L23.3839 51.5322L18.9659 43.1844L17.1982 44.1199ZM23.3839 52.4678L27.9248 43.8875L26.1571 42.952L21.6161 51.5322L23.3839 52.4678Z" fill="#FFCC00" mask="url(#path-1-inside-1_4456_3975)"/>
<path d="M17.048 28V15.31H22.214C23.582 15.31 24.632 15.598 25.364 16.174C26.096 16.75 26.462 17.56 26.462 18.604C26.462 19.396 26.222 20.056 25.742 20.584C25.274 21.112 24.632 21.466 23.816 21.646V21.376C24.752 21.484 25.478 21.808 25.994 22.348C26.522 22.888 26.786 23.602 26.786 24.49C26.786 25.618 26.408 26.488 25.652 27.1C24.896 27.7 23.828 28 22.448 28H17.048ZM18.668 26.668H22.286C23.174 26.668 23.87 26.5 24.374 26.164C24.89 25.816 25.148 25.246 25.148 24.454C25.148 23.65 24.89 23.08 24.374 22.744C23.87 22.408 23.174 22.24 22.286 22.24H18.668V26.668ZM18.668 20.908H21.98C22.928 20.908 23.636 20.728 24.104 20.368C24.572 19.996 24.806 19.462 24.806 18.766C24.806 18.07 24.572 17.542 24.104 17.182C23.636 16.81 22.928 16.624 21.98 16.624H18.668V20.908Z" fill="#FFCC00"/>
</svg>
